<svg xmlns="http://www.w3.org/2000/svg" width="32" height="32" viewBox="0 0 32 32" fill="none">
  <rect width="32" height="32" rx="8" fill="#C8A961"/>
  <g transform="translate(6, 5)">
    <path d="M10 2C10 2 7 3 4 3C3.4 3 3 3.4 3 4V18C3 18.6 3.4 19 4 19C7 19 10 20 10 20C10 20 13 19 16 19C16.6 19 17 18.6 17 18V4C17 3.4 16.6 3 16 3C13 3 10 2 10 2Z" stroke="#1A1612" stroke-width="1.5" stroke-linecap="round" stroke-linejoin="round" fill="none"/>
    <path d="M10 2V20" stroke="#1A1612" stroke-width="1.5" stroke-linecap="round"/>
    <path d="M6 7H8" stroke="#1A1612" stroke-width="1.2" stroke-linecap="round"/>
    <path d="M6 10H8" stroke="#1A1612" stroke-width="1.2" stroke-linecap="round"/>
    <path d="M12 7H14" stroke="#1A1612" stroke-width="1.2" stroke-linecap="round"/>
    <path d="M12 10H14" stroke="#1A1612" stroke-width="1.2" stroke-linecap="round"/>
  </g>
</svg>
